<svg width="66" height="40" viewBox="0 0 66 40" fill="none" xmlns="http://www.w3.org/2000/svg">
<path d="M30.0129 23.4129C29.8905 23.0858 29.9721 22.7996 30.2169 22.5543L32.8284 19.9375C33.0325 19.733 33.2773 19.6513 33.6037 19.733C33.8894 19.8148 34.0934 19.9784 34.2158 20.2646L34.9503 22.5543L37.2354 23.2903C37.521 23.4129 37.6842 23.6174 37.7658 23.9036C37.8475 24.2307 37.7658 24.476 37.5618 24.6805L34.9503 27.2973C34.7055 27.5426 34.4198 27.6244 34.0934 27.5018L32.094 26.8067L28.3807 30.5275C28.1767 30.7319 27.9318 30.8137 27.687 30.8137C27.4014 30.8137 27.1566 30.7319 26.9933 30.5275C26.7893 30.3639 26.7077 30.1186 26.7077 29.8324C26.7077 29.587 26.7893 29.3417 26.9933 29.1373L30.7066 25.4165L30.0129 23.4129ZM27.687 25.58C26.9117 25.58 26.218 25.7845 25.5652 26.1524C24.9123 26.5613 24.3818 27.052 24.0146 27.7062C23.6065 28.3604 23.4433 29.0964 23.4433 29.8324C23.4433 30.6092 23.6065 31.3043 24.0146 31.9585C24.3818 32.6128 24.9123 33.1443 25.5652 33.5123C26.218 33.9212 26.9117 34.0847 27.687 34.0847C28.4215 34.0847 29.156 33.9212 29.8089 33.5123C30.4618 33.1443 30.9514 32.6128 31.3595 31.9585C31.7267 31.3043 31.9307 30.6092 31.9307 29.8324C31.9307 29.5462 31.8899 29.2599 31.8083 28.9328L32.4204 28.3195L33.767 28.7693C33.8486 29.1782 33.8894 29.5462 33.8894 29.8324C33.8894 30.9772 33.6037 31.9994 33.0325 32.9399C32.4612 33.9212 31.7267 34.6572 30.7882 35.2296C29.8089 35.802 28.7888 36.0474 27.687 36.0474C26.5445 36.0474 25.5244 35.802 24.5858 35.2296C23.6065 34.6572 22.872 33.9212 22.3008 32.9399C21.7295 31.9994 21.4847 30.9772 21.4847 29.8324C21.4847 28.7284 21.7295 27.7062 22.3008 26.7249C22.872 25.7845 23.6065 25.0485 24.5858 24.476C25.5244 23.9036 26.5445 23.6174 27.687 23.6174C27.9727 23.6174 28.3399 23.6583 28.7479 23.7401L29.1968 25.0894L28.5847 25.7027C28.2583 25.6209 27.9727 25.58 27.687 25.58ZM37.317 26.7658C37.6434 27.788 37.8067 28.8102 37.8067 29.8324C37.8067 31.6723 37.317 33.3487 36.4193 34.9025C35.5216 36.4562 34.2974 37.7238 32.7468 38.6233C31.1962 39.5228 29.4824 39.9726 27.687 39.9726C25.8508 39.9726 24.1778 39.5228 22.6272 38.6233C21.0766 37.7238 19.8117 36.4562 18.9139 34.9025C18.0162 33.3487 17.5674 31.6723 17.5674 29.8324C17.5674 28.0333 18.0162 26.316 18.9139 24.7623C19.8117 23.2085 21.0766 21.9819 22.6272 21.0823C24.1778 20.1828 25.8508 19.6921 27.687 19.6921C28.7071 19.6921 29.7273 19.8557 30.7474 20.1828L29.2784 21.6139L29.156 21.7774C28.6255 21.6957 28.1359 21.6548 27.687 21.6548C26.218 21.6548 24.8307 22.0228 23.6065 22.7587C22.3416 23.4947 21.3622 24.5169 20.6278 25.7436C19.8933 27.0111 19.526 28.3604 19.526 29.8324C19.526 31.3043 19.8933 32.6945 20.6278 33.9212C21.3622 35.1887 22.3416 36.17 23.6065 36.906C24.8307 37.642 26.218 38.01 27.687 38.01C29.156 38.01 30.5026 37.642 31.7675 36.906C32.9917 36.17 34.0118 35.1887 34.7463 33.9212C35.4808 32.6945 35.848 31.3043 35.848 29.8324C35.848 29.3826 35.8072 28.8919 35.7256 28.3604L35.8888 28.2377L37.317 26.7658Z" fill="#E33B3B"/>
<path d="M59.2964 39.5648V19.5765H65.9999V22.5951H62.2275V27.9798H64.9415V30.9168H62.2275V36.5462H65.9999V39.5648H59.2964Z" fill="#125ABF"/>
<path d="M44.2534 39.5648V19.5765H47.1845C48.9396 19.5765 50.2332 20.066 51.0655 21.045C51.8978 22.015 52.3139 23.4472 52.3139 25.3418C52.3139 26.4659 52.1149 27.4404 51.7169 28.2653C51.3279 29.0812 50.8529 29.6794 50.292 30.0602L52.2868 39.5648H49.3557L47.7002 31.1344H47.1845V39.5648H44.2534ZM47.1845 28.4149C47.7273 28.4149 48.157 28.297 48.4737 28.0613C48.7903 27.8166 49.0165 27.4721 49.1522 27.0279C49.2879 26.5837 49.3557 26.058 49.3557 25.4506C49.3557 24.4988 49.1974 23.769 48.8808 23.2614C48.5732 22.7447 48.0078 22.4863 47.1845 22.4863V28.4149Z" fill="#125ABF"/>
<path d="M8.65423 39.9999C7.82194 39.9999 7.11178 39.8141 6.52375 39.4424C5.94477 39.0617 5.50149 38.545 5.1939 37.8923C4.89536 37.2396 4.74609 36.5008 4.74609 35.6759V23.9004C4.74609 23.0846 4.89989 22.3503 5.20747 21.6976C5.5241 21.0449 5.97643 20.5282 6.56446 20.1475C7.15249 19.7668 7.84908 19.5764 8.65423 19.5764C9.26035 19.5764 9.80315 19.6897 10.2826 19.9164C10.7621 20.143 11.1692 20.4557 11.5039 20.8546C11.8477 21.2444 12.11 21.7022 12.291 22.2279C12.4719 22.7446 12.5624 23.3021 12.5624 23.9004V26.6471H9.82124V23.9004C9.82124 23.4834 9.7353 23.1344 9.56341 22.8534C9.39152 22.5724 9.10656 22.4319 8.70851 22.4319C8.34664 22.4319 8.08429 22.5769 7.92145 22.867C7.75861 23.1571 7.67719 23.5016 7.67719 23.9004V35.6759C7.67719 36.0748 7.76314 36.4192 7.93502 36.7093C8.11595 36.9994 8.37378 37.1444 8.70851 37.1444C9.1156 37.1444 9.40057 37.0039 9.56341 36.7229C9.7353 36.4419 9.82124 36.0929 9.82124 35.6759V32.9292H12.5624V35.6759C12.5624 36.4917 12.404 37.226 12.0874 37.8787C11.7708 38.5314 11.3185 39.0481 10.7304 39.4288C10.1514 39.8095 9.45937 39.9999 8.65423 39.9999Z" fill="#125ABF"/>
<path fill-rule="evenodd" clip-rule="evenodd" d="M16.755 3.46129C17.7089 3.46129 18.4822 2.68645 18.4822 1.73065C18.4822 0.774836 17.7089 0 16.755 0C15.8012 0 15.0279 0.774836 15.0279 1.73065C15.0279 2.68645 15.8012 3.46129 16.755 3.46129ZM43.6055 1.20626L48.6621 11.966C48.9702 12.6204 48.925 13.3777 48.5347 13.991C48.1526 14.6043 47.4874 14.9663 46.7645 14.9663H34.5138C33.7333 14.9663 33.1008 14.3326 33.1008 13.5504C33.1008 12.7686 33.7333 12.1305 34.5138 12.1305H45.6103L41.6544 3.70864L39.5662 7.44579H40.7371C41.5173 7.44579 42.154 8.08386 42.154 8.86581C42.154 9.64776 41.5173 10.2816 40.7371 10.2816H38.3174C37.5658 10.2816 36.8881 9.8947 36.5102 9.24442C36.1282 8.59825 36.1159 7.8163 36.4813 7.15781L39.8717 1.08279C40.2415 0.415987 40.9398 0.000329882 41.6668 0.000329882C41.7079 0.000329882 41.7449 0.000331107 41.7819 0.00443523C42.5664 0.0332781 43.2687 0.490089 43.6055 1.20626ZM32.7124 2.67368C32.5456 2.74275 32.3668 2.77813 32.1863 2.7778H28.8095V13.2446C28.8095 14.195 28.0398 14.9663 27.0912 14.9663C26.1425 14.9663 25.3729 14.195 25.3729 13.2446V2.7778H21.9962C21.8157 2.77815 21.6369 2.74278 21.4701 2.67372C21.3032 2.60466 21.1516 2.50328 21.024 2.37538C20.8964 2.24749 20.7952 2.0956 20.7262 1.92842C20.6573 1.76125 20.622 1.58209 20.6223 1.40121C20.622 1.22034 20.6573 1.04119 20.7263 0.874027C20.7952 0.706868 20.8964 0.554991 21.024 0.427108C21.1517 0.299224 21.3033 0.197849 21.4701 0.1288C21.6369 0.0597506 21.8157 0.0243856 21.9962 0.0247311H32.1863C32.3668 0.0244157 32.5456 0.0598033 32.7124 0.128866C32.8792 0.197929 33.0307 0.299308 33.1584 0.427188C33.286 0.555069 33.3872 0.706936 33.4561 0.87408C33.525 1.04122 33.5603 1.22036 33.56 1.40121C33.5603 1.58207 33.5251 1.76123 33.4561 1.92839C33.3872 2.09555 33.2861 2.24744 33.1584 2.37534C33.0308 2.50323 32.8792 2.60462 32.7124 2.67368ZM64.1954 0.0026124C63.2467 0.0026124 62.477 0.773846 62.477 1.72429V9.2182L56.1058 0.507876H52.616V13.2446C52.616 14.195 53.3855 14.9663 54.3342 14.9663C55.2829 14.9663 56.0526 14.195 56.0526 13.2446V5.64054L62.5012 14.4832H65.9137V1.72429C65.9137 0.773846 65.1441 0.0026124 64.1954 0.0026124ZM6.46873 14.9663C5.51999 14.9663 4.75032 14.195 4.75032 13.2446V2.7778H1.37368C1.19319 2.77813 1.0144 2.74275 0.847583 2.67368C0.680764 2.60462 0.529194 2.50323 0.401569 2.37534C0.273943 2.24744 0.172774 2.09555 0.103863 1.92839C0.0349526 1.76123 -0.00034226 1.58207 2.50153e-06 1.40121C-0.000327266 1.22035 0.0349788 1.04121 0.103896 0.874063C0.172813 0.706912 0.273985 0.555039 0.401609 0.427155C0.529233 0.299272 0.680797 0.197894 0.847609 0.128836C1.01442 0.059779 1.1932 0.0244006 1.37368 0.0247311H11.5637C11.7442 0.0243856 11.923 0.0597527 12.0898 0.128803C12.2566 0.197854 12.4082 0.299229 12.5358 0.427115C12.6635 0.555 12.7646 0.706878 12.8336 0.874037C12.9025 1.0412 12.9378 1.22034 12.9375 1.40121C12.9378 1.58208 12.9025 1.76125 12.8336 1.92842C12.7647 2.09559 12.6635 2.24748 12.5359 2.37538C12.4082 2.50327 12.2566 2.60466 12.0898 2.67372C11.923 2.74278 11.7442 2.77815 11.5637 2.7778H8.18703V13.2446C8.18703 14.195 7.41725 14.9663 6.46873 14.9663ZM18.4984 13.2446V7.02409C18.4984 6.07352 17.7287 5.30229 16.7801 5.30229C15.8315 5.30229 15.0618 6.07352 15.0618 7.02409V13.2446C15.0618 14.195 15.8315 14.9663 16.7801 14.9663C17.7287 14.9663 18.4984 14.195 18.4984 13.2446Z" fill="#125ABF"/>
</svg>
